<svg width="38" height="26" viewBox="0 0 38 26" fill="none" xmlns="http://www.w3.org/2000/svg">
    <path fill-rule="evenodd" clip-rule="evenodd"
        d="M8.07889 12.7663L8.29534 11.7878C9.12693 11.5007 10.8243 11.3703 11.1433 12.401C11.3255 13.0011 10.8015 15.4931 10.699 16.2237L9.89017 16.2367C9.7079 15.9758 9.856 16.4585 9.73069 15.8192C8.95605 16.6151 7.30426 16.4846 7.42957 14.8799C7.55488 13.2881 8.76239 13.4969 10.0724 13.262C10.0497 12.2444 8.93327 12.5184 8.0675 12.7532L8.07889 12.7663ZM14.1734 12.6097C13.433 12.6097 13.3191 12.4271 12.6697 12.7532C12.7495 13.6795 13.171 13.3142 13.7519 13.7578C14.8569 14.5928 13.6722 17.1761 11.0407 16.0671L11.1888 15.1277C11.9293 15.2973 12.3052 15.467 12.8748 15.1016C13.0115 13.7839 10.9724 14.645 11.542 12.5314C11.8495 11.3833 13.2051 11.5399 14.3215 11.6573L14.162 12.6097H14.1734ZM2.82733 10.6135L4.57026 10.6788L4.75252 13.81L5.69803 11.305C6.017 10.4048 5.80056 10.6005 7.80549 10.6266L6.90555 16.2237L5.92587 16.2106L6.46128 12.1922L5.01453 16.2367L3.84119 16.1976C3.80701 15.4148 3.75006 12.6619 3.56779 12.14L2.97542 16.2106L1.95017 16.1976L2.82733 10.6135ZM19.4478 22.4992L19.9262 21.8468C18.9693 21.7033 18.7985 22.0165 18.3656 21.1293L20.5642 21.1032C20.7009 20.8422 20.9287 20.5944 21.0426 20.2943C18.5365 20.0986 17.8302 20.8292 17.4315 19.5767H21.4527L21.897 18.7808L16.9302 18.7548L16.7024 18.0894L22.0565 18.0633C22.3641 17.8676 22.3641 17.6458 22.4438 17.2413L17.3745 17.2283C16.4632 17.2413 16.4062 17.4762 16.2353 16.5237H22.6147L22.8197 15.7148L20.9515 15.6888L20.8604 16.2367L19.7895 16.1845L20.4616 11.6312L21.4755 11.7878C21.4755 11.8139 21.4983 11.9052 21.4983 11.9443C21.4983 11.9704 21.5097 12.0096 21.5097 12.0226L21.5666 12.2574C21.8514 11.866 22.0337 11.579 22.6944 11.6051L22.3527 12.6619C22.159 12.9489 21.5894 12.6228 21.3502 13.4056L22.4666 13.4577C22.5919 12.6358 22.7286 12.3879 22.9336 11.7225L22.945 11.3311L15.9619 11.3442L15.9392 11.6312C16.3151 11.6312 16.3037 11.5529 16.5201 11.7617L16.4176 12.5314C15.7113 12.7271 15.7341 12.2444 15.6658 13.3012C15.7683 13.4969 15.643 13.3925 15.8594 13.4577L16.3037 13.4708C17.0214 10.7962 19.163 11.3833 19.6528 12.2183C19.9148 12.6619 20.1769 14.1231 19.5275 14.2406L17.3517 14.2667C17.4542 15.5844 18.7757 15.3104 19.6301 14.9842C19.5959 15.5322 19.6301 15.9758 19.1858 16.1584C18.8326 16.302 18.0922 16.2628 17.7049 16.1584C16.748 15.9105 16.3379 15.3626 16.2695 14.1753L15.8594 14.1623C15.4835 13.9666 15.7797 14.1623 15.586 13.6274C15.4265 14.7233 14.9936 15.4278 16.1784 15.2713C16.11 15.9236 16.1898 16.1454 15.5632 16.2237C13.7406 16.4716 14.3329 15.0756 14.6291 13.2099C15.0962 10.2352 14.7316 10.6005 16.0531 10.6266L22.8425 10.6396L22.7058 9.83074L16.1442 9.80464L16.2695 9.1523L22.478 9.11316C22.3185 8.00419 22.2843 8.27817 20.0288 8.27817H16.5885C16.8277 7.32575 16.7024 7.58669 18.9352 7.58669H21.954L21.635 6.76474L17.2606 6.75169L17.5568 6.07326L21.2135 6.04716C20.7464 4.95123 20.7692 5.26436 18.1833 5.21217C18.5137 4.2728 19.0946 4.50764 20.1085 4.50764C19.8237 3.98577 19.6187 4.02491 19.4478 3.58132C19.0263 3.33343 18.6504 2.88984 18.2289 2.55062C15.005 -0.0587385 10.6306 -0.332721 7.12199 1.6243C3.9665 3.37257 0.867961 7.41708 0.902136 13.0142C0.947702 21.0118 7.07643 26.8438 14.014 25.4869C17.272 24.8476 18.0922 23.3342 19.4364 22.4861L19.4478 22.4992Z"
        fill="#E41D2C" />
    <path fill-rule="evenodd" clip-rule="evenodd"
        d="M26.8864 11.7501C30.4178 10.9282 29.8368 12.9243 29.552 14.5421C29.4609 15.0249 29.4609 15.9773 29.1305 16.2382C29.0508 16.2382 28.5837 16.2513 28.5382 16.2252C28.2192 16.0817 28.3673 16.5122 28.3217 15.8468C27.3648 16.4731 25.8497 16.6166 26.032 14.8683C26.1801 13.4723 27.4104 13.2505 28.6635 13.3157C28.6179 12.285 27.7977 12.4547 26.6585 12.7808L26.8978 11.7501H26.8864ZM30.3722 11.6327L31.3177 11.6457C31.3291 11.6718 31.3405 11.711 31.3405 11.7371L31.4886 12.2198C31.6595 11.9197 31.9785 11.6588 32.4797 11.6457L32.343 12.5721L31.8759 12.7808C30.9418 13.1331 30.9988 14.4769 30.7482 16.2382H29.6887L30.3722 11.6327ZM35.396 10.6411H36.3643L35.5327 16.2513C34.4504 16.2643 34.7125 16.3296 34.3707 15.8599C33.6644 17.0602 31.5456 15.9512 32.1949 13.4723C32.6733 11.6197 34.291 11.1239 35.0884 12.2198L35.4073 10.6281L35.396 10.6411ZM19.459 3.59587C19.6299 4.03946 19.8463 4.00032 20.1197 4.52219C19.1059 4.52219 18.5249 4.2743 18.1945 5.22672C20.7804 5.27891 20.7576 4.96578 21.2247 6.06171L17.568 6.08781L17.2718 6.76624L21.6462 6.77929L21.9652 7.60124H18.9464C16.725 7.60124 16.8389 7.35335 16.5997 8.29272H20.04C22.2955 8.29272 22.3297 8.01874 22.4892 9.12771L16.2807 9.16685L16.1554 9.81919L22.717 9.84529L22.8537 10.6542L16.0643 10.6411L15.9731 11.3718L22.9562 11.3587L22.9449 11.7501C23.4689 11.1761 23.3777 10.876 24.3574 10.5498C25.1662 10.2889 25.6789 10.4846 26.4763 10.6803L26.3054 11.8806C24.9384 11.4109 24.0498 11.5283 23.7309 13.1461C23.3777 14.8814 24.5739 15.5337 25.8383 14.8422C25.7244 16.1078 25.5422 16.4209 24.2435 16.2252C23.3436 16.0947 23.0702 15.5989 22.6715 14.9857H21.0424L20.9513 15.7033L22.8195 15.7294L22.6145 16.5383H16.2352C16.406 17.4907 16.463 17.2559 17.3743 17.2428L22.4436 17.2559C22.3525 17.6473 22.3639 17.8821 22.0563 18.0778L16.7022 18.1039L16.93 18.7693L21.8968 18.7954L21.4525 19.5913H17.4313C17.83 20.8307 18.5363 20.1131 21.0424 20.3088C20.9285 20.6089 20.7007 20.8568 20.564 21.1177L18.3654 21.1438C18.7869 22.018 18.9692 21.7179 19.9261 21.8614L19.4476 22.5137C21.0766 23.8837 22.3411 25.0318 24.9726 25.5536C27.3648 26.0233 29.8596 25.5015 31.7848 24.4186C40.1235 19.7087 39.8957 6.13999 31.7164 1.65189C28.7774 0.0471347 24.8814 -0.0963802 21.8399 1.73017C20.3703 2.60431 20.0172 3.23056 19.4704 3.60891L19.459 3.59587Z"
        fill="#F8B02B" />
    <path fill-rule="evenodd" clip-rule="evenodd"
        d="M1.94971 16.2119L2.97499 16.225L3.56737 12.1543C3.74964 12.6762 3.8066 15.4291 3.84078 16.2119L5.01415 16.2511L6.46093 12.2065L5.92551 16.225L6.90522 16.238L7.80519 10.6408C5.8002 10.6147 6.01664 10.419 5.69767 11.3193L4.75213 13.8243L4.56986 10.693L2.82689 10.6278L1.94971 16.2119ZM33.6878 15.1812C32.8334 14.1766 33.5625 12.5065 34.3599 12.7283C35.1459 12.9501 34.9978 15.1551 33.6878 15.1812ZM35.0776 12.2195C34.2802 11.1235 32.6739 11.6193 32.184 13.472C31.5347 15.9379 33.6536 17.06 34.3599 15.8597C34.7017 16.3294 34.4396 16.2511 35.5219 16.2511L36.3535 10.6408H35.3852L35.0662 12.2326L35.0776 12.2195ZM27.2513 15.1943C27.0918 14.3201 27.7981 13.9809 28.4702 14.1374C28.5044 15.0246 27.9576 15.5074 27.2513 15.1943ZM26.8868 11.7629L26.6475 12.7936C27.7867 12.4804 28.6183 12.3108 28.6525 13.3285C27.3994 13.2633 26.1691 13.4851 26.021 14.8811C25.8273 16.6294 27.3538 16.4859 28.3108 15.8597C28.3563 16.5251 28.2082 16.0945 28.5272 16.238C28.5728 16.2641 29.0398 16.2511 29.1196 16.2511C29.4613 16.0032 29.4613 15.0377 29.5411 14.5549C29.8373 12.9241 30.4069 10.9409 26.8754 11.7629H26.8868ZM9.88992 14.0983C9.9127 14.5419 9.84435 14.8811 9.59373 15.1029C9.42285 15.2464 8.91021 15.4161 8.70515 15.1943C8.0672 14.5289 9.26336 14.0852 9.87853 14.0983H9.88992ZM8.07859 12.7675C8.94438 12.5326 10.0608 12.2586 10.0836 13.2763C8.7735 13.5112 7.56595 13.3024 7.44064 14.8942C7.30394 16.499 8.95578 16.6294 9.74182 15.8336C9.86714 16.4729 9.71904 15.9901 9.90131 16.2511L10.7101 16.238C10.8127 15.4943 11.3367 13.0154 11.1544 12.4152C10.8355 11.3714 9.14944 11.5019 8.30643 11.802L8.08999 12.7805L8.07859 12.7675ZM17.5225 13.4198C17.6706 12.7544 17.9213 12.4804 18.5934 12.5848C18.8326 12.9762 18.8326 12.8588 18.8782 13.4198H17.5225ZM16.315 13.4851L16.2694 14.1896C16.3378 15.3769 16.7593 15.9118 17.7048 16.1728C18.0921 16.2772 18.8326 16.3163 19.1858 16.1728C19.6301 16.0032 19.5959 15.5465 19.6301 14.9985C18.7757 15.3247 17.4542 15.5987 17.3517 14.281L19.5275 14.2549C20.1769 14.1374 19.9149 12.6892 19.6528 12.2326C19.163 11.3975 17.0213 10.8104 16.3036 13.4851H16.315ZM22.9451 11.7498C22.7401 12.4152 22.6034 12.6631 22.4781 13.4851V14.2027L22.6717 14.9985C23.0704 15.6118 23.3438 16.1076 24.2438 16.238C25.5425 16.4337 25.7248 16.1206 25.8387 14.855C24.5628 15.5465 23.378 14.8942 23.7312 13.1589C24.0615 11.528 24.9501 11.4236 26.3058 11.8933L26.4766 10.693C25.6792 10.5103 25.1666 10.3146 24.3577 10.5625C23.378 10.8757 23.4692 11.1888 22.9451 11.7629V11.7498ZM14.3214 11.6585C13.205 11.5541 11.8493 11.3845 11.5418 12.5326C10.9722 14.6463 12.9999 13.7852 12.8746 15.1029C12.2936 15.4682 11.9291 15.2986 11.1886 15.129L11.0405 16.0684C13.6721 17.1774 14.8454 14.6071 13.7518 13.7591C13.1708 13.3155 12.7493 13.6938 12.6696 12.7544C13.3189 12.4152 13.4214 12.6109 14.1733 12.6109L14.3328 11.6585H14.3214Z"
        fill="#FEFEFE" />
    <path fill-rule="evenodd" clip-rule="evenodd"
        d="M15.5974 13.6421L15.6771 13.329C15.7455 12.2722 15.7227 12.7549 16.429 12.5592L16.5315 11.7894C16.3151 11.5807 16.3265 11.659 15.9505 11.659L15.9733 11.3719L16.0644 10.6413C14.743 10.6152 15.1075 10.2499 14.6405 13.2246C14.3443 15.0903 13.7519 16.4863 15.5746 16.2384C16.1898 16.1601 16.1214 15.9383 16.1898 15.286C15.0164 15.4426 15.4493 14.738 15.5974 13.6421ZM20.9515 15.7165L21.0426 14.999L21.1565 14.2162L21.3616 13.4333C21.6122 12.6505 22.1818 12.9767 22.3641 12.6897L22.7058 11.6329C22.0337 11.6068 21.8514 11.8938 21.578 12.2852L21.5211 12.0504C21.5211 12.0373 21.5097 11.9982 21.5097 11.9721C21.5097 11.946 21.4869 11.8416 21.4869 11.8155L20.473 11.659L19.8009 16.2123L20.8717 16.2645L20.9629 15.7165H20.9515ZM29.6889 16.2384H30.7483C30.9989 14.4771 30.942 13.1333 31.8761 12.781L32.3432 12.5723L32.4799 11.6459C31.9786 11.659 31.6597 11.9199 31.4888 12.22L31.3407 11.7373C31.3293 11.7112 31.3293 11.672 31.3179 11.6459L30.3724 11.6329L29.6889 16.2384Z"
        fill="#FEFEFE" />
    <path fill-rule="evenodd" clip-rule="evenodd"
        d="M33.6856 15.1757C35.007 15.1496 35.1551 12.9447 34.3577 12.7229C33.5489 12.5011 32.8312 14.1711 33.6856 15.1757Z"
        fill="#F8B02B" />
    <path fill-rule="evenodd" clip-rule="evenodd"
        d="M9.89001 14.0962C9.27485 14.0832 8.07873 14.5268 8.71666 15.1922C8.92171 15.4009 9.43434 15.2313 9.60521 15.1008C9.85583 14.8921 9.91279 14.5398 9.9014 14.0962H9.89001ZM21.0425 14.9834L22.6715 14.9965L22.4778 14.2006H21.1564L21.0425 14.9834Z"
        fill="#E41D2C" />
    <path fill-rule="evenodd" clip-rule="evenodd"
        d="M27.2513 15.196C27.969 15.4961 28.5044 15.0264 28.4702 14.1392C27.7867 13.9957 27.0918 14.3349 27.2513 15.196ZM21.1567 14.2044H22.4782V13.4869L21.3618 13.4216L21.1567 14.2044Z"
        fill="#F8B02B" />
    <path fill-rule="evenodd" clip-rule="evenodd"
        d="M17.5225 13.4182H18.8781C18.8439 12.8702 18.8325 12.9746 18.5933 12.5832C17.9212 12.4788 17.6706 12.7528 17.5225 13.4182Z"
        fill="#E41D2C" />
    <path fill-rule="evenodd" clip-rule="evenodd"
        d="M15.5972 13.6459C15.7908 14.1808 15.4946 13.9851 15.8706 14.1808L16.2806 14.1938L16.3262 13.4893L15.882 13.4763C15.6541 13.4241 15.7794 13.5154 15.6883 13.3197L15.6086 13.6328L15.5972 13.6459Z"
        fill="#F8B02B" />
</svg>