<svg width="58" height="22" viewBox="0 0 58 22" fill="none" xmlns="http://www.w3.org/2000/svg">
    <path fill-rule="evenodd" clip-rule="evenodd"
        d="M41.0464 14.2425C41.058 10.8749 38.6273 9.4209 36.74 8.29115C35.5456 7.57672 34.5693 6.9924 34.5693 6.1365C34.5693 5.40698 35.1875 4.63457 36.5032 4.43512C38.0674 4.25839 39.6455 4.57138 41.065 5.34139L41.878 0.923611C40.4935 0.330372 39.0262 0.0236527 37.5471 0.017334C32.9841 0.017334 29.8127 2.80054 29.8127 6.77652C29.8127 9.71493 32.114 11.3495 33.8543 12.3214C35.5946 13.2934 36.2711 13.9775 36.2513 14.861C36.2513 16.2306 34.8213 16.8489 33.4869 16.8717C31.8411 16.8957 30.2174 16.44 28.7687 15.5463L27.9371 19.9641C29.5759 20.6949 31.322 21.0623 33.0809 21.0459C37.9332 21.0459 41.1245 18.3068 41.1432 14.0658L41.0464 14.2425ZM28.4981 0.372025L24.6315 20.8036H19.9915L23.8581 0.372025H28.4981ZM47.9492 13.624L50.3847 5.9599L51.7972 13.624H47.9492ZM57.4041 20.8703H53.1117L52.5507 17.8221H46.7315L45.7832 20.8703H40.9111L47.8524 1.9397C48.172 1.03847 48.9337 0.446486 49.7863 0.437656H53.653L57.4041 20.8703ZM14.4802 20.7366L21.9826 0.305123H16.9553L12.1415 14.1983L10.2076 2.38147C10.0362 1.17983 9.12637 0.300074 8.06144 0.305123H0.19282L0.0761719 0.900886C1.65433 1.25431 3.18814 1.83241 4.63916 2.6238C5.25736 2.95577 5.67611 3.63613 5.74143 4.41362L9.4343 20.7366H14.4802Z"
        fill="#111928" />
</svg>