<svg width="87" height="32" viewBox="0 0 87 32" fill="none" xmlns="http://www.w3.org/2000/svg">
    <path
        d="M5.35195 27.6625C5.61375 27.6625 5.82616 27.4181 5.82616 27.1162C5.82616 26.8145 5.61375 26.5695 5.35195 26.5695C5.09087 26.5695 4.87842 26.8145 4.87842 27.1162C4.87842 27.4181 5.09087 27.6625 5.35195 27.6625Z"
        fill="#009CDD" />
    <path
        d="M42.0294 31.9446C42.2913 31.9446 42.5037 31.7001 42.5037 31.3985C42.5037 31.0965 42.2913 30.8516 42.0294 30.8516C41.7681 30.8516 41.5562 31.0965 41.5562 31.3985C41.5562 31.7001 41.7681 31.9446 42.0294 31.9446Z"
        fill="#6D2077" />
    <path
        d="M19.593 28.634L19.5928 28.6321C19.5917 28.0231 19.4071 27.5092 19.072 27.1621L19.0484 27.1379L19.043 27.1323H19.0418C18.7266 26.8223 18.2996 26.6588 17.7933 26.6532C17.7915 26.6527 17.7871 26.6526 17.7824 26.6526C17.7777 26.6526 17.773 26.6527 17.7682 26.6535L17.7645 26.6532C17.7493 26.6532 17.7392 26.6537 17.7316 26.6541C17.7257 26.6537 17.7162 26.6532 17.7051 26.6532L17.6975 26.6535C17.6936 26.653 17.6887 26.6526 17.6826 26.6526H17.6808C17.6813 26.6526 17.6799 26.6526 17.6782 26.6526C17.6756 26.6526 17.6721 26.6526 17.6683 26.6532C17.1633 26.6596 16.7379 26.8225 16.4235 27.1323H16.4221L16.3933 27.1621C16.0594 27.5077 15.8748 28.0191 15.8724 28.625L15.8717 28.6281L15.8691 31.7646C15.8691 31.8065 15.8847 31.8477 15.9119 31.8769C15.9393 31.9067 15.9775 31.9239 16.016 31.9239H16.5034C16.5418 31.9239 16.5795 31.9067 16.6071 31.8769C16.6348 31.8477 16.6501 31.8065 16.6501 31.7646L16.6512 28.7339C16.6541 28.2898 16.7533 27.9751 16.9324 27.7672C17.1057 27.5658 17.3704 27.452 17.7346 27.444C18.0954 27.452 18.3596 27.5658 18.5331 27.7672C18.7119 27.9751 18.8111 28.2898 18.8142 28.7348L18.8134 31.7646C18.8134 31.8065 18.8291 31.8477 18.8564 31.8769C18.8838 31.9067 18.9219 31.9239 18.9604 31.9239H19.4485C19.4869 31.9239 19.5248 31.9067 19.5523 31.8769C19.5802 31.8477 19.5954 31.8065 19.5954 31.7646L19.593 28.634Z"
        fill="#D00070" />
    <path
        d="M36.5887 28.634L36.5885 28.6321C36.5874 28.0231 36.4029 27.5092 36.0677 27.1621L36.0441 27.1379L36.0387 27.1323C35.7234 26.8223 35.2953 26.6588 34.7891 26.6532C34.7872 26.6527 34.783 26.6526 34.7781 26.6526C34.7734 26.6526 34.7687 26.6527 34.764 26.6535L34.7602 26.6532C34.7451 26.6532 34.7349 26.6537 34.7274 26.6541C34.7215 26.6537 34.7119 26.6532 34.7009 26.6532L34.6932 26.6535C34.6893 26.653 34.6846 26.6526 34.6784 26.6526H34.6765C34.6773 26.6526 34.6756 26.6526 34.6739 26.6526C34.6714 26.6526 34.6678 26.6526 34.6641 26.6532C34.159 26.6596 33.7336 26.8225 33.4192 27.1323H33.4177L33.389 27.1621C33.0551 27.5077 32.8706 28.0191 32.8682 28.625L32.8674 28.6281L32.8647 31.7646C32.8647 31.8065 32.8804 31.8477 32.9076 31.8769C32.935 31.9067 32.9732 31.9239 33.0117 31.9239H33.499C33.5376 31.9239 33.5753 31.9067 33.603 31.8769C33.6305 31.8477 33.6457 31.8065 33.6457 31.7646L33.6468 28.7339C33.6498 28.2898 33.749 27.9751 33.928 27.7672C34.1015 27.5658 34.3661 27.452 34.7304 27.444C35.0911 27.452 35.3554 27.5658 35.5288 27.7672C35.7076 27.9751 35.8068 28.2898 35.8099 28.7348L35.8092 31.7646C35.8092 31.8065 35.8248 31.8477 35.852 31.8769C35.8795 31.9067 35.9176 31.9239 35.9561 31.9239H36.4443C36.4827 31.9239 36.5206 31.9067 36.548 31.8769C36.5759 31.8477 36.591 31.8065 36.591 31.7646L36.5887 28.634Z"
        fill="#D00070" />
    <path
        d="M27.4755 29.3031V29.3141V29.3269C27.4743 29.8264 27.428 30.3145 27.2621 30.6639C27.0991 30.9999 26.8369 31.2243 26.3278 31.2332C26.3244 31.2328 26.319 31.2328 26.3088 31.2332H26.3003C25.7878 31.2272 25.5221 31.0025 25.3583 30.6633C25.191 30.3126 25.1442 29.8205 25.1442 29.3178V29.2876C25.1447 28.7882 25.191 28.3875 25.3583 28.0384C25.5221 27.6992 25.7878 27.4739 26.3003 27.4686H26.3038H26.3121H26.32C26.8328 27.4739 27.0976 27.6987 27.2627 28.039C27.4289 28.3875 27.4755 28.7882 27.4755 29.2876V29.3031ZM27.6198 27.1885C27.6171 27.1849 27.6146 27.1813 27.611 27.1777C27.3334 26.8844 26.8895 26.7028 26.3752 26.7022C26.3682 26.701 26.3575 26.701 26.3474 26.701C25.9244 26.7009 25.5072 26.8022 25.1447 27.1577L25.1442 26.846L25.145 25.2654C25.145 25.2237 25.1294 25.1827 25.102 25.1535C25.0747 25.1239 25.0366 25.1068 24.9981 25.1068H24.5177C24.4795 25.1068 24.4416 25.1239 24.4139 25.1535C24.3862 25.1827 24.3711 25.2237 24.3711 25.2654V26.846L24.3714 30.2014L24.3711 31.7733C24.3711 31.8151 24.3868 31.8561 24.4139 31.885C24.4413 31.9148 24.4795 31.9318 24.518 31.9318H24.9983C25.0366 31.9318 25.0745 31.9148 25.102 31.885C25.1299 31.8561 25.1451 31.8151 25.1451 31.7733V31.4484C25.4657 31.8589 25.9256 32.0002 26.3474 32.0001H26.3772C26.8903 31.9982 27.3344 31.8166 27.611 31.5237C28.1285 30.9626 28.2469 30.1027 28.2484 29.3033C28.247 28.5081 28.1285 27.7474 27.6198 27.1885Z"
        fill="#D00070" />
    <path
        d="M14.52 30.0183C14.5189 30.4379 14.4387 30.6697 14.331 30.7777C14.0712 31.0524 13.7495 31.0936 13.3578 31.0944H13.3535H13.3462C12.969 31.095 12.721 31.02 12.5805 30.9035C12.447 30.7928 12.3781 30.6348 12.3747 30.3629V30.3506C12.3773 30.0806 12.4489 29.9122 12.5838 29.7935C12.7251 29.6704 12.963 29.5905 13.3192 29.5905H13.3223H14.52V30.0183ZM15.3264 28.4015V28.3978C15.3266 27.8659 15.1721 27.4099 14.8482 27.1052C14.522 26.7984 14.0538 26.6542 13.4511 26.654H13.4294H13.4212C12.7885 26.6518 12.2858 26.8097 11.9031 27.2761L11.9016 27.2743L11.8798 27.3044C11.8509 27.3409 11.8227 27.3785 11.7954 27.4187C11.7954 27.4187 11.7949 27.4196 11.7947 27.42L11.7555 27.4731C11.732 27.5049 11.7206 27.5476 11.7254 27.5905C11.7295 27.6339 11.7487 27.6754 11.7778 27.7041L11.7999 27.7261C11.8084 27.7378 11.8177 27.7485 11.8281 27.7586L11.9137 27.8389L12.1414 28.0645C12.1705 28.0937 12.209 28.1093 12.2462 28.1071C12.2832 28.1054 12.3181 28.0861 12.3414 28.0541L12.4877 27.8553C12.5787 27.7419 12.6723 27.6616 12.7853 27.605C12.945 27.5247 13.15 27.4872 13.446 27.4841H13.4496L13.4596 27.4834C13.8806 27.4846 14.1427 27.5827 14.2927 27.7334C14.4423 27.8819 14.5183 28.106 14.5194 28.4547C14.5194 28.4569 14.5194 28.4632 14.52 28.471V28.7997H13.2695C12.7651 28.801 12.3432 28.9316 12.0387 29.2037C11.7363 29.4697 11.5676 29.8792 11.5674 30.3563L11.5676 30.3743C11.5683 30.7718 11.6987 31.1616 11.9356 31.4323C12.2557 31.7936 12.682 31.9249 13.3263 31.9249H13.3335H13.6599C14.2499 31.9255 14.673 31.7585 14.9456 31.4219C15.2177 31.0852 15.3266 30.5984 15.3266 29.993V28.4106L15.3264 28.4015Z"
        fill="#D00070" />
    <path
        d="M29.3752 30.369V30.3567C29.3777 30.0871 29.4492 29.9187 29.5842 29.8003C29.7256 29.677 29.9635 29.5973 30.3195 29.5973H30.3228H31.5205V30.0247C31.5193 30.444 31.4392 30.6756 31.3313 30.7839C31.0716 31.058 30.75 31.0992 30.3581 31.1004H30.3538H30.3467C29.9692 31.1008 29.7215 31.0259 29.581 30.9091C29.4473 30.7987 29.3786 30.641 29.3752 30.369ZM32.3268 28.4088V28.4052C32.3271 27.8736 32.1726 27.418 31.8486 27.1134C31.5227 26.8068 31.0543 26.6626 30.4518 26.6624H30.4299H30.4217C29.7888 26.6606 29.2862 26.8181 28.9037 27.2841L28.9021 27.2826L28.8802 27.3125C28.8514 27.3489 28.8232 27.3868 28.7957 27.4267C28.7955 27.4272 28.7954 27.4276 28.7951 27.428L28.7559 27.4812C28.7325 27.5129 28.721 27.5557 28.7259 27.5986C28.73 27.6417 28.749 27.6832 28.7782 27.7122L28.8003 27.7341C28.8089 27.7455 28.8182 27.7564 28.8285 27.7663L28.9141 27.8468L29.1419 28.0722C29.171 28.1011 29.2093 28.1169 29.2466 28.1147C29.2837 28.1129 29.3184 28.0936 29.3418 28.0618L29.4879 27.8632C29.5791 27.75 29.6726 27.6694 29.7858 27.6128C29.9455 27.5327 30.1504 27.495 30.4464 27.492L30.45 27.4918L30.4599 27.4913C30.8811 27.4925 31.1431 27.5907 31.2931 27.7412C31.4428 27.8894 31.5185 28.1137 31.5198 28.4619C31.5198 28.4643 31.5198 28.4704 31.5205 28.4783V28.807H30.27C29.7655 28.8083 29.3436 28.9386 29.0391 29.2106C28.7366 29.4764 28.5681 29.8859 28.5679 30.3625L28.5681 30.3807C28.5688 30.7779 28.6991 31.1674 28.9361 31.4378C29.2561 31.7989 29.6825 31.9302 30.3266 31.9302H30.3338H30.6604C31.2503 31.9307 31.6734 31.7638 31.946 31.4273C32.218 31.0911 32.3271 30.6047 32.3271 29.9996V28.418L32.3268 28.4088Z"
        fill="#D00070" />
    <path
        d="M7.81332 26.6721H6.98968L6.98935 25.716L6.98879 25.2533C6.98879 25.1703 6.9253 25.1025 6.84696 25.1025H6.35172C6.3144 25.1025 6.27762 25.1184 6.25162 25.1466C6.22506 25.1748 6.20947 25.214 6.20947 25.2533V26.1059L6.20986 30.5879C6.2102 30.952 6.30174 31.2798 6.50303 31.5282C6.69482 31.7684 7.00564 31.9184 7.36477 31.9184H7.3661H7.60467V31.915H7.81332C7.84967 31.915 7.88502 31.8969 7.91039 31.8655C7.9361 31.834 7.95084 31.7903 7.95084 31.7455V31.1915C7.95084 31.1472 7.9361 31.1034 7.91039 31.0718C7.88502 31.04 7.84967 31.0222 7.81332 31.0222H7.43059C7.35302 31.0188 7.29086 31.008 7.23667 30.986C7.2021 30.9725 7.18071 30.9571 7.16088 30.9426C7.13894 30.925 7.12686 30.9165 7.10536 30.8908C7.03168 30.8025 6.9909 30.6628 6.98968 30.4545V27.5652H7.81332C7.84967 27.5652 7.88502 27.5471 7.91039 27.5156C7.9361 27.4839 7.95084 27.4401 7.95084 27.3957V26.8414C7.95084 26.7973 7.9361 26.7536 7.91039 26.7218C7.88502 26.6898 7.84967 26.6721 7.81332 26.6721Z"
        fill="#D00070" />
    <path
        d="M11.3653 27.327L11.3197 27.2687C11.3178 27.2619 11.3145 27.2555 11.3089 27.2489L11.2812 27.2164L11.2433 27.1713L11.2121 27.1315L11.2109 27.1331C10.9306 26.7954 10.5819 26.6531 10.2106 26.6526C10.2029 26.6526 10.194 26.6528 10.1814 26.6531C9.91772 26.6531 9.60645 26.7888 9.41974 27.0463L9.29098 27.2213V27.1482V26.83C9.29098 26.7883 9.27547 26.7473 9.2481 26.7183C9.22062 26.6885 9.18261 26.6715 9.14394 26.6715H8.66391C8.62535 26.6715 8.58745 26.6885 8.55997 26.7183C8.53238 26.7473 8.51709 26.7883 8.51709 26.83V27.1482V31.7669C8.51709 31.8089 8.53271 31.8498 8.55997 31.8788C8.58723 31.9086 8.62535 31.9257 8.66391 31.9257H8.7468C8.74935 31.9258 8.75212 31.9265 8.75477 31.9265H9.05717C9.06005 31.9265 9.0626 31.9258 9.06537 31.9257H9.14416C9.18261 31.9257 9.2204 31.9086 9.2481 31.8788C9.2758 31.8498 9.29098 31.8089 9.29098 31.7669V31.6815C9.29098 31.6805 9.2912 31.6793 9.2912 31.6783V28.7492C9.2912 28.7454 9.29098 28.7419 9.29098 28.738V28.5009C9.3055 28.2287 9.38085 27.9835 9.50462 27.8054C9.63715 27.6154 9.8314 27.492 10.0933 27.4911C10.2321 27.4911 10.3233 27.5101 10.4022 27.5477C10.4783 27.5857 10.556 27.6509 10.6578 27.7713L10.6809 27.7984L10.7852 27.9316C10.8097 27.963 10.8456 27.9816 10.8833 27.982C10.9211 27.9828 10.9595 27.9658 10.9886 27.9356L11.3485 27.5605C11.3772 27.5305 11.3956 27.4882 11.3988 27.4441C11.4024 27.4007 11.3898 27.3582 11.3653 27.327Z"
        fill="#D00070" />
    <path
        d="M23.4636 29.2248C23.4616 29.223 23.4594 29.2218 23.4577 29.2203C23.1773 28.9961 22.8218 28.918 22.4395 28.8807L21.7228 28.8115C21.4246 28.7829 21.2397 28.7118 21.1324 28.6152C21.0414 28.5358 20.985 28.4075 20.9833 28.2104V28.2059V28.1957C20.985 27.9624 21.0641 27.793 21.2047 27.6779C21.3545 27.554 21.5948 27.4752 21.9345 27.4747H21.9374C22.371 27.4756 22.73 27.5914 23.0292 27.8116L23.2106 27.9583C23.2396 27.9818 23.2767 27.9904 23.3123 27.9809C23.3485 27.9719 23.3815 27.9463 23.4029 27.9105L23.6707 27.4635C23.6923 27.4276 23.7016 27.3824 23.6964 27.3405C23.6936 27.3173 23.6857 27.2958 23.6747 27.2767C23.6648 27.255 23.6507 27.2356 23.6321 27.2204L23.6013 27.1951C23.174 26.8462 22.5781 26.6507 21.9358 26.6497C21.4216 26.6498 20.9828 26.7914 20.6643 27.0626C20.3485 27.3293 20.1628 27.7326 20.1626 28.1915L20.1628 28.1978V28.2009L20.1626 28.2132C20.1626 28.6189 20.2939 28.9774 20.556 29.2218C20.8209 29.47 21.1936 29.6022 21.6632 29.6456L22.3999 29.7139C22.6698 29.7422 22.8387 29.8108 22.938 29.9061C23.0248 29.9867 23.0801 30.1145 23.0806 30.3183V30.3294V30.331C23.0786 30.5879 22.9883 30.7651 22.8198 30.888C22.6388 31.0194 22.3447 31.0998 21.9358 31.0998H21.9331C21.9316 31.0998 21.929 31.1001 21.9254 31.1005H21.9218C21.3823 31.0974 20.9989 30.9586 20.7004 30.6762L20.5451 30.5257C20.5173 30.4985 20.4802 30.4859 20.443 30.4916C20.4057 30.4972 20.37 30.5197 20.3453 30.5539L20.0368 30.9809C20.012 31.0152 19.999 31.06 20.0012 31.1034C20.0029 31.1464 20.0202 31.1868 20.048 31.2137L20.1944 31.3554C20.1974 31.358 20.1997 31.3609 20.2026 31.3636L20.2216 31.3818L20.2229 31.3802C20.6758 31.7557 21.241 31.9354 21.9331 31.9354H21.9454C22.5159 31.9348 22.9974 31.7931 23.3488 31.5153C23.6959 31.2415 23.903 30.8187 23.9025 30.331V30.3068C23.9031 29.8151 23.7368 29.4444 23.4636 29.2248Z"
        fill="#D00070" />
    <path
        d="M41.1451 31.7045L40.5442 30.7333L39.3403 28.7198L40.276 27.5817L40.8208 26.9222L40.8538 26.8801C40.9168 26.8075 40.886 26.7321 40.8586 26.7031C40.8313 26.6734 40.7932 26.6562 40.7546 26.6562H40.1291C40.0919 26.6562 40.0437 26.6891 40.0163 26.7169C40.0158 26.7171 40.0169 26.7168 40.0163 26.7169L37.9157 29.283V27.1386V25.2464C37.9157 25.2048 37.8999 25.1637 37.8727 25.1345C37.8452 25.1048 37.8072 25.0878 37.7686 25.0878H37.2884C37.25 25.0878 37.2121 25.1048 37.1847 25.1345C37.1568 25.1637 37.1416 25.2048 37.1416 25.2464V27.1386V31.7662C37.1416 31.8078 37.1572 31.8492 37.1845 31.8784C37.212 31.9078 37.25 31.9251 37.2886 31.9251H37.7688C37.8072 31.9251 37.8451 31.9078 37.8727 31.8784C37.9005 31.8492 37.9157 31.8078 37.9157 31.7662V30.45L38.8257 29.3204L39.4381 30.3701H39.4356L40.2966 31.8439C40.3167 31.8766 40.3485 31.9285 40.4203 31.9285H41.046C41.0846 31.9285 41.1226 31.9113 41.15 31.8815C41.1773 31.8524 41.1953 31.7771 41.1451 31.7045Z"
        fill="#D00070" />
    <path
        d="M35.7676 25.1378H35.8523L35.9784 25.563L36.1047 25.1378H36.1885V25.6408H36.132V25.3433C36.132 25.3329 36.1325 25.3171 36.1325 25.2925C36.1325 25.2685 36.1337 25.2443 36.1337 25.2165L36.0078 25.6408H35.9485L35.8229 25.2165V25.2314V25.2873C35.8238 25.3138 35.8238 25.332 35.8238 25.3433V25.6408H35.7676V25.1378Z"
        fill="#D00070" />
    <path
        d="M36.6363 25.3678C36.663 25.3678 36.6847 25.3617 36.7012 25.3487C36.7157 25.3371 36.7246 25.3138 36.7246 25.2792C36.7246 25.2443 36.7141 25.2193 36.691 25.2061C36.679 25.199 36.663 25.1958 36.6439 25.1958H36.5017V25.3678H36.6363ZM36.4424 25.1378H36.6429C36.6759 25.1378 36.7034 25.1431 36.7238 25.1546C36.7647 25.1753 36.7846 25.2149 36.7846 25.2729C36.7846 25.3028 36.7801 25.3275 36.7688 25.3471C36.7571 25.3656 36.7421 25.3821 36.7223 25.3937C36.7396 25.4022 36.7536 25.4119 36.7622 25.4249C36.7702 25.4378 36.775 25.4598 36.775 25.489L36.7784 25.5552C36.7784 25.5753 36.7806 25.5892 36.7822 25.5989C36.7863 25.6137 36.7924 25.6241 36.8017 25.6284V25.6408H36.7289C36.7268 25.6354 36.7259 25.6304 36.7238 25.6241C36.7223 25.6172 36.7218 25.604 36.7215 25.5844L36.7174 25.5001C36.7153 25.4668 36.7059 25.4447 36.6864 25.4339C36.6759 25.4278 36.6571 25.4249 36.6336 25.4249H36.5017V25.6408H36.4424V25.1378Z"
        fill="#D00070" />
    <path
        d="M36.3176 25.6384C36.3007 25.6384 36.2891 25.624 36.2891 25.6016C36.2891 25.5793 36.301 25.5641 36.3194 25.5641C36.3367 25.5641 36.3491 25.5793 36.3491 25.6016C36.3491 25.624 36.3367 25.6384 36.3176 25.6384Z"
        fill="#D00070" />
    <path
        d="M36.9189 25.6384C36.9014 25.6384 36.8887 25.624 36.8887 25.6016C36.8887 25.5793 36.9014 25.5641 36.9196 25.5641C36.938 25.5641 36.9499 25.5793 36.9499 25.6016C36.9499 25.624 36.9376 25.6384 36.9189 25.6384Z"
        fill="#D00070" />
    <path
        d="M46.2502 12.5372V12.5703V12.574V12.6086C46.2465 14.1011 46.1083 15.5593 45.6126 16.603C45.1254 17.6071 44.3422 18.2777 42.8209 18.3043C42.811 18.3027 42.7948 18.3027 42.7641 18.3043H42.7389C41.2073 18.2867 40.4139 17.6146 39.9242 16.6013C39.4245 15.5534 39.2843 14.0829 39.2843 12.5815V12.4909C39.2858 10.9989 39.4245 9.8018 39.9242 8.75874C40.4139 7.74499 41.2073 7.07237 42.7389 7.05626H42.7492H42.7744H42.7975C44.3301 7.07237 45.1207 7.74397 45.6145 8.76089C46.1106 9.8018 46.2502 10.9989 46.2502 12.4909V12.5372ZM46.6812 6.21955C46.6733 6.20889 46.6654 6.19772 46.6551 6.18706C45.8258 5.31075 44.4994 4.76822 42.9623 4.76657C42.9418 4.76339 42.9098 4.76339 42.88 4.76339C41.616 4.76289 40.3691 5.06506 39.2858 6.12728L39.2843 6.12843V5.19615H39.2868V0.47375C39.2868 0.349126 39.2402 0.226405 39.1587 0.1396C39.0772 0.0510174 38.9637 0 38.8478 0H37.4126C37.2985 0 37.1855 0.0510174 37.1026 0.1396C37.0203 0.226405 36.9746 0.349126 36.9746 0.47375V5.19615L36.9756 15.2214L36.9746 19.9182C36.9746 20.043 37.0217 20.1656 37.1026 20.2519C37.185 20.3408 37.2985 20.3916 37.414 20.3916H38.8483C38.9637 20.3916 39.0768 20.3408 39.1587 20.2519C39.242 20.1656 39.2876 20.043 39.2876 19.9182V18.9471C40.2449 20.1735 41.6192 20.5962 42.88 20.5956H42.9684C44.5018 20.5898 45.8282 20.0473 46.6551 19.172C48.2011 17.4956 48.5544 14.9261 48.5595 12.5377C48.5553 10.1622 48.2011 7.88941 46.6812 6.21955Z"
        fill="#6D2077" />
    <path
        d="M59.4704 12.8566C59.4704 14.3484 59.3308 15.5456 58.8347 16.5865C58.341 17.6035 57.5502 18.2751 56.0177 18.291H55.9945H55.9694H55.9591C54.4275 18.2751 53.634 17.6024 53.1445 16.5886C52.6446 15.5456 52.506 14.3484 52.5045 12.8566V12.766C52.5045 11.2645 52.6446 9.79392 53.1445 8.74604C53.634 7.7328 54.4275 7.06069 55.9591 7.04317H55.9842C56.015 7.0447 56.0311 7.0447 56.041 7.04317C57.5624 7.0697 58.3456 7.74028 58.8328 8.74451C59.3285 9.78808 59.4667 11.2464 59.4704 12.7388V12.7735V12.7772V12.8102V12.8566ZM59.9014 19.1278C61.4212 17.4579 61.7755 15.1853 61.7797 12.8097C61.7746 10.4212 61.4212 7.85171 59.8753 6.17537C59.0484 5.30021 57.722 4.75755 56.1885 4.75171H56.1001C54.8394 4.7512 53.4651 5.17394 52.5079 6.40038V5.42915C52.5079 5.3044 52.4622 5.18193 52.3789 5.09551C52.297 5.00654 52.184 4.95591 52.0685 4.95591H50.6342C50.5187 4.95591 50.4053 5.00654 50.3228 5.09551C50.2418 5.18193 50.1948 5.3044 50.1948 5.42915V10.126L50.1957 20.1512L50.1948 24.8736C50.1948 24.9984 50.2405 25.121 50.3228 25.2078C50.4057 25.2962 50.5187 25.3475 50.6327 25.3475H52.0681C52.184 25.3475 52.2974 25.2962 52.3789 25.2078C52.4603 25.121 52.5069 24.9984 52.5069 24.8736V20.1512H52.5045V19.2191L52.506 19.2201C53.5894 20.2823 54.8362 20.5846 56.1001 20.584C56.1299 20.584 56.162 20.584 56.1825 20.5808C57.7197 20.5793 59.0459 20.0366 59.8753 19.1604C59.8855 19.1498 59.8934 19.1385 59.9014 19.1278Z"
        fill="#6D2077" />
    <path
        d="M80.4924 21.8254C80.3662 22.2169 80.1399 22.8488 79.9889 23.2285C79.9889 23.2285 79.7159 23.9166 79.3293 24.3606C78.9752 24.7654 78.5712 25.045 78.1159 25.1997C77.6614 25.3539 77.3626 25.378 77.3626 25.378C76.9988 25.4068 76.4682 25.4309 76.1834 25.4309C75.8986 25.4309 75.6654 25.0893 75.6654 24.6722V23.5567C75.6654 23.1396 75.8135 22.7979 75.994 22.7979C76.175 22.7979 76.6192 22.7625 76.9815 22.7198C76.9815 22.7198 77.2575 22.6865 77.5099 22.4648C77.7629 22.2421 77.8905 21.9229 77.8905 21.9229C78.0424 21.5432 78.2664 20.9108 78.3879 20.5173L78.6531 19.6593C78.7747 19.2658 78.7713 18.6231 78.6466 18.2312L74.6302 5.65877C74.5048 5.26675 74.7008 4.94592 75.0654 4.94592H76.4686C76.8328 4.94592 77.227 5.26941 77.3439 5.66461L79.9749 14.5566C80.0923 14.9523 80.2811 14.9513 80.3957 14.5549L82.9608 5.66676C83.0753 5.26992 83.4671 4.94592 83.8319 4.94592H85.2598C85.6244 4.94592 85.8195 5.26624 85.6937 5.65813L80.4924 21.8254Z"
        fill="#6D2077" />
    <path
        d="M65.2006 15.8552V15.8189C65.2078 15.0233 65.4195 14.5261 65.8181 14.1761C66.235 13.8122 66.9374 13.5768 67.9892 13.5768H67.9982H71.5352V14.8389C71.5319 16.0769 71.2946 16.7612 70.9771 17.0805C70.2099 17.8899 69.2603 18.0118 68.1027 18.0151H68.0901H68.0691C66.9547 18.0161 66.223 17.7955 65.8081 17.4503C65.4132 17.1244 65.2105 16.6585 65.2006 15.8552ZM73.9165 10.0675V10.0565C73.9169 8.48713 73.4608 7.14151 72.504 6.24211C71.5415 5.33674 70.1586 4.91147 68.3796 4.91033H68.315H68.2909C66.4214 4.90474 64.938 5.37012 63.8081 6.74594L63.8034 6.7415L63.7387 6.83033C63.6539 6.93744 63.5706 7.04938 63.4891 7.16727C63.4886 7.16842 63.4881 7.17007 63.4876 7.17121L63.3721 7.32807C63.3026 7.42198 63.2686 7.54813 63.283 7.67491C63.295 7.80233 63.3516 7.92467 63.4377 8.0102L63.503 8.07493C63.5279 8.10894 63.5556 8.14079 63.5863 8.16985L63.8388 8.40755L64.5115 9.07319C64.5973 9.15873 64.7109 9.2053 64.8206 9.19883C64.9303 9.19388 65.0324 9.13677 65.1018 9.04248L65.5331 8.45578C65.8024 8.12214 66.0788 7.88406 66.4127 7.71666C66.8842 7.4801 67.4893 7.36931 68.3637 7.35992L68.3744 7.35941L68.4035 7.35827C69.6475 7.36157 70.4212 7.6513 70.8639 8.09637C71.3057 8.5337 71.53 9.19604 71.5333 10.2245C71.5333 10.231 71.5333 10.2496 71.5352 10.2727V11.2429H67.8429C66.3529 11.2468 65.1071 11.6321 64.2083 12.4349C63.3152 13.2201 62.8169 14.4284 62.8164 15.8365L62.8169 15.8897C62.8193 17.063 63.204 18.2127 63.904 19.0117C64.8489 20.0778 66.108 20.4653 68.0101 20.4653H68.0313H68.9952C70.7374 20.4674 71.987 19.9741 72.792 18.9808C73.595 17.9882 73.9169 16.5509 73.9169 14.7648V10.0944L73.9165 10.0675Z"
        fill="#6D2077" />
    <path
        d="M22.1501 4.97595C21.7691 4.97595 21.3729 5.31949 21.2688 5.73855L18.7603 15.8715C18.6564 16.2913 18.4739 16.2956 18.3548 15.8812L15.4373 5.72903C15.3186 5.31493 14.9097 4.97595 14.5288 4.97595H14.0055C13.6247 4.97595 13.2164 5.31505 13.0982 5.72966L10.2038 15.8806C10.0855 16.2952 9.90281 16.2919 9.79832 15.8722L7.26733 5.73867C7.1625 5.31911 6.76503 4.97595 6.38396 4.97595H5.31803C4.9375 4.97595 4.72007 5.31607 4.8349 5.73182L8.70596 19.7149C8.8212 20.13 9.22665 20.4708 9.60773 20.4708H10.3398C10.6798 20.4708 11.0462 20.1687 11.1542 19.7997L14.048 9.90902C14.1691 9.49555 14.3675 9.49555 14.4895 9.90852L17.3821 19.7193C17.5043 20.1323 17.9156 20.4708 18.2962 20.4708H19.0048C19.3574 20.4708 19.7327 20.1556 19.8386 19.7702L23.7002 5.73233C23.8146 5.31607 23.5967 4.97595 23.2161 4.97595L22.1501 4.97595Z"
        fill="#6D2077" />
    <path
        d="M35.3346 12.234C35.3346 7.63505 33.204 4.77808 29.7746 4.77808C26.2933 4.77808 24.2148 7.72388 24.2148 12.6577C24.2148 17.7386 26.3112 20.5372 30.1178 20.5372C32.4821 20.5372 33.7505 19.6288 35.0308 18.1634L35.201 17.9683L33.5671 16.3256L33.4174 16.4966C32.3743 17.6913 31.5245 18.1144 30.1707 18.1144C27.9165 18.1144 26.6397 16.4735 26.5708 13.4909H35.3346V12.234ZM26.5802 11.3404C26.6277 10.3763 26.6885 9.94479 26.946 9.22039C27.4192 7.93734 28.503 7.14048 29.7746 7.14048C31.046 7.14048 32.1296 7.93671 32.6025 9.21823C32.8607 9.94479 32.9213 10.3763 32.9691 11.3404H26.5802Z"
        fill="#6D2077" />
    <path
        d="M1.94455 8.18473C2.70451 8.18473 3.3216 7.4743 3.3216 6.59799C3.3216 5.72169 2.70451 5.01074 1.94455 5.01074C1.1864 5.01074 0.569336 5.72169 0.569336 6.59799C0.569336 7.4743 1.1864 8.18473 1.94455 8.18473Z"
        fill="#D00070" />
    <path
        d="M85.6233 20.4616C86.3838 20.4616 87.0004 19.751 87.0004 18.8754C87.0004 17.9986 86.3838 17.287 85.6233 17.287C84.8648 17.287 84.249 17.9986 84.249 18.8754C84.249 19.751 84.8648 20.4616 85.6233 20.4616Z"
        fill="#D00070" />
</svg>